<mxfile host="app.diagrams.net" agent="Mozilla/5.0 (X11; Linux x86_64) AppleWebKit/537.36 (KHTML, like Gecko) Chrome/133.0.0.0 Safari/537.36" version="26.0.11">
  <diagram name="Page-1" id="_AiS04JJKczzCWLh5fM-">
    <mxGraphModel dx="1056" dy="924" grid="1" gridSize="10" guides="1" tooltips="1" connect="1" arrows="1" fold="1" page="1" pageScale="1" pageWidth="850" pageHeight="1100" math="0" shadow="0">
      <root>
        <mxCell id="0" />
        <mxCell id="1" parent="0" />
        <mxCell id="s1rMm7xmmvtjpNFJAjiU-18" style="edgeStyle=orthogonalEdgeStyle;rounded=0;orthogonalLoop=1;jettySize=auto;html=1;exitX=0.875;exitY=0.5;exitDx=0;exitDy=0;exitPerimeter=0;entryX=0;entryY=0.5;entryDx=0;entryDy=0;endArrow=none;startFill=0;" edge="1" parent="1" source="s1rMm7xmmvtjpNFJAjiU-19" target="s1rMm7xmmvtjpNFJAjiU-21">
          <mxGeometry relative="1" as="geometry" />
        </mxCell>
        <mxCell id="s1rMm7xmmvtjpNFJAjiU-19" value="Browser&lt;div&gt;Web&lt;/div&gt;&lt;div&gt;Socket&lt;/div&gt;" style="ellipse;shape=cloud;whiteSpace=wrap;html=1;fillStyle=auto;fillColor=#d5e8d4;strokeColor=#82b366;gradientColor=#33FFFF;gradientDirection=radial;shadow=1;" vertex="1" parent="1">
          <mxGeometry x="40" y="40" width="120" height="80" as="geometry" />
        </mxCell>
        <mxCell id="s1rMm7xmmvtjpNFJAjiU-20" style="edgeStyle=orthogonalEdgeStyle;shape=connector;rounded=0;orthogonalLoop=1;jettySize=auto;html=1;exitX=1;exitY=0.5;exitDx=0;exitDy=0;entryX=0;entryY=0.5;entryDx=0;entryDy=0;strokeColor=default;align=center;verticalAlign=middle;fontFamily=Helvetica;fontSize=11;fontColor=default;labelBackgroundColor=default;startFill=0;endArrow=none;" edge="1" parent="1" source="s1rMm7xmmvtjpNFJAjiU-21" target="s1rMm7xmmvtjpNFJAjiU-23">
          <mxGeometry relative="1" as="geometry" />
        </mxCell>
        <mxCell id="s1rMm7xmmvtjpNFJAjiU-21" value="Cowboy&lt;div&gt;Web&lt;/div&gt;&lt;div&gt;Socket&lt;/div&gt;" style="ellipse;whiteSpace=wrap;html=1;aspect=fixed;dashed=1;fillColor=#f5f5f5;strokeColor=#666666;gradientColor=#b3b3b3;" vertex="1" parent="1">
          <mxGeometry x="240" y="40" width="80" height="80" as="geometry" />
        </mxCell>
        <mxCell id="s1rMm7xmmvtjpNFJAjiU-22" style="edgeStyle=orthogonalEdgeStyle;shape=connector;rounded=0;orthogonalLoop=1;jettySize=auto;html=1;exitX=1;exitY=0.5;exitDx=0;exitDy=0;entryX=0;entryY=0.5;entryDx=0;entryDy=0;strokeColor=default;align=center;verticalAlign=middle;fontFamily=Helvetica;fontSize=11;fontColor=default;labelBackgroundColor=default;startFill=0;endArrow=none;curved=1;strokeWidth=1;" edge="1" parent="1" source="s1rMm7xmmvtjpNFJAjiU-23" target="s1rMm7xmmvtjpNFJAjiU-31">
          <mxGeometry relative="1" as="geometry" />
        </mxCell>
        <mxCell id="s1rMm7xmmvtjpNFJAjiU-23" value="Anim&lt;div&gt;Socket&lt;/div&gt;&lt;div&gt;Handler&lt;/div&gt;" style="ellipse;whiteSpace=wrap;html=1;aspect=fixed;fillColor=#dae8fc;gradientColor=#7ea6e0;strokeColor=#6c8ebf;" vertex="1" parent="1">
          <mxGeometry x="400" y="40" width="80" height="80" as="geometry" />
        </mxCell>
        <mxCell id="s1rMm7xmmvtjpNFJAjiU-30" style="edgeStyle=orthogonalEdgeStyle;shape=connector;curved=1;rounded=0;orthogonalLoop=1;jettySize=auto;html=1;exitX=1;exitY=0.5;exitDx=0;exitDy=0;entryX=0;entryY=0.5;entryDx=0;entryDy=0;strokeColor=default;align=center;verticalAlign=middle;fontFamily=Helvetica;fontSize=11;fontColor=default;labelBackgroundColor=default;startFill=0;endArrow=none;" edge="1" parent="1" source="s1rMm7xmmvtjpNFJAjiU-31" target="s1rMm7xmmvtjpNFJAjiU-32">
          <mxGeometry relative="1" as="geometry" />
        </mxCell>
        <mxCell id="s1rMm7xmmvtjpNFJAjiU-31" value="Channel" style="ellipse;whiteSpace=wrap;html=1;aspect=fixed;fillColor=#d5e8d4;gradientColor=#97d077;strokeColor=#82b366;" vertex="1" parent="1">
          <mxGeometry x="560" y="40" width="80" height="80" as="geometry" />
        </mxCell>
        <mxCell id="s1rMm7xmmvtjpNFJAjiU-32" value="Animator" style="ellipse;whiteSpace=wrap;html=1;aspect=fixed;fillColor=#fff2cc;gradientColor=#ffd966;strokeColor=#d6b656;" vertex="1" parent="1">
          <mxGeometry x="720" y="40" width="80" height="80" as="geometry" />
        </mxCell>
        <mxCell id="s1rMm7xmmvtjpNFJAjiU-36" value="1" style="text;html=1;align=center;verticalAlign=middle;whiteSpace=wrap;rounded=0;" vertex="1" parent="1">
          <mxGeometry x="540" y="60" width="20" height="30" as="geometry" />
        </mxCell>
        <mxCell id="s1rMm7xmmvtjpNFJAjiU-37" value="1" style="text;html=1;align=center;verticalAlign=middle;whiteSpace=wrap;rounded=0;" vertex="1" parent="1">
          <mxGeometry x="640" y="60" width="20" height="30" as="geometry" />
        </mxCell>
        <mxCell id="s1rMm7xmmvtjpNFJAjiU-39" value="&amp;lt;" style="text;html=1;align=center;verticalAlign=middle;whiteSpace=wrap;rounded=0;" vertex="1" parent="1">
          <mxGeometry x="700" y="60" width="20" height="30" as="geometry" />
        </mxCell>
        <mxCell id="s1rMm7xmmvtjpNFJAjiU-40" value="&amp;gt;" style="text;html=1;align=center;verticalAlign=middle;whiteSpace=wrap;rounded=0;fontSize=12;" vertex="1" parent="1">
          <mxGeometry x="480" y="65" width="20" height="20" as="geometry" />
        </mxCell>
      </root>
    </mxGraphModel>
  </diagram>
</mxfile>
